<mxfile host="app.diagrams.net" agent="Mozilla/5.0 (Macintosh; Intel Mac OS X 10.15; rv:134.0) Gecko/20100101 Firefox/134.0" version="26.0.8">
  <diagram name="Page-1" id="zf9pPjW4tSXsNRUqr2be">
    <mxGraphModel dx="1578" dy="917" grid="1" gridSize="10" guides="1" tooltips="1" connect="1" arrows="1" fold="1" page="1" pageScale="1" pageWidth="1169" pageHeight="827" math="0" shadow="0">
      <root>
        <mxCell id="0" />
        <mxCell id="1" parent="0" />
        <mxCell id="l54pLfl_Zj9ZTrnPYG_9-2" value="AWS Cloud" style="points=[[0,0],[0.25,0],[0.5,0],[0.75,0],[1,0],[1,0.25],[1,0.5],[1,0.75],[1,1],[0.75,1],[0.5,1],[0.25,1],[0,1],[0,0.75],[0,0.5],[0,0.25]];outlineConnect=0;gradientColor=none;html=1;whiteSpace=wrap;fontSize=12;fontStyle=0;container=1;pointerEvents=0;collapsible=0;recursiveResize=0;shape=mxgraph.aws4.group;grIcon=mxgraph.aws4.group_aws_cloud;strokeColor=#232F3E;fillColor=none;verticalAlign=top;align=left;spacingLeft=30;fontColor=#232F3E;dashed=0;" vertex="1" parent="1">
          <mxGeometry x="40" y="80" width="1080" height="680" as="geometry" />
        </mxCell>
        <mxCell id="l54pLfl_Zj9ZTrnPYG_9-3" value="Region" style="points=[[0,0],[0.25,0],[0.5,0],[0.75,0],[1,0],[1,0.25],[1,0.5],[1,0.75],[1,1],[0.75,1],[0.5,1],[0.25,1],[0,1],[0,0.75],[0,0.5],[0,0.25]];outlineConnect=0;gradientColor=none;html=1;whiteSpace=wrap;fontSize=12;fontStyle=0;container=1;pointerEvents=0;collapsible=0;recursiveResize=0;shape=mxgraph.aws4.group;grIcon=mxgraph.aws4.group_region;strokeColor=#00A4A6;fillColor=none;verticalAlign=top;align=left;spacingLeft=30;fontColor=#147EBA;dashed=1;" vertex="1" parent="l54pLfl_Zj9ZTrnPYG_9-2">
          <mxGeometry x="40" y="40" width="1000" height="360" as="geometry" />
        </mxCell>
        <mxCell id="l54pLfl_Zj9ZTrnPYG_9-4" value="ap-southeast-2a" style="fillColor=none;strokeColor=#147EBA;dashed=1;verticalAlign=top;fontStyle=0;fontColor=#147EBA;whiteSpace=wrap;html=1;" vertex="1" parent="l54pLfl_Zj9ZTrnPYG_9-3">
          <mxGeometry x="40" y="40" width="280" height="280" as="geometry" />
        </mxCell>
        <mxCell id="l54pLfl_Zj9ZTrnPYG_9-5" value="ap-southeast-2c" style="fillColor=none;strokeColor=#147EBA;dashed=1;verticalAlign=top;fontStyle=0;fontColor=#147EBA;whiteSpace=wrap;html=1;" vertex="1" parent="l54pLfl_Zj9ZTrnPYG_9-3">
          <mxGeometry x="680" y="40" width="280" height="280" as="geometry" />
        </mxCell>
        <mxCell id="l54pLfl_Zj9ZTrnPYG_9-6" value="ap-southeast-2b" style="fillColor=none;strokeColor=#147EBA;dashed=1;verticalAlign=top;fontStyle=0;fontColor=#147EBA;whiteSpace=wrap;html=1;" vertex="1" parent="l54pLfl_Zj9ZTrnPYG_9-3">
          <mxGeometry x="360" y="40" width="280" height="280" as="geometry" />
        </mxCell>
        <mxCell id="l54pLfl_Zj9ZTrnPYG_9-9" value="Competitors Auto Scaling Group" style="points=[[0,0],[0.25,0],[0.5,0],[0.75,0],[1,0],[1,0.25],[1,0.5],[1,0.75],[1,1],[0.75,1],[0.5,1],[0.25,1],[0,1],[0,0.75],[0,0.5],[0,0.25]];outlineConnect=0;gradientColor=none;html=1;whiteSpace=wrap;fontSize=12;fontStyle=0;container=1;pointerEvents=0;collapsible=0;recursiveResize=0;shape=mxgraph.aws4.groupCenter;grIcon=mxgraph.aws4.group_auto_scaling_group;grStroke=1;strokeColor=#D86613;fillColor=none;verticalAlign=top;align=center;fontColor=#D86613;dashed=1;spacingTop=25;" vertex="1" parent="l54pLfl_Zj9ZTrnPYG_9-3">
          <mxGeometry x="80" y="120" width="840" height="130" as="geometry" />
        </mxCell>
        <mxCell id="l54pLfl_Zj9ZTrnPYG_9-10" value="" style="sketch=0;outlineConnect=0;fontColor=#232F3E;gradientColor=none;fillColor=#ED7100;strokeColor=none;dashed=0;verticalLabelPosition=bottom;verticalAlign=top;align=center;html=1;fontSize=12;fontStyle=0;aspect=fixed;pointerEvents=1;shape=mxgraph.aws4.instance2;" vertex="1" parent="l54pLfl_Zj9ZTrnPYG_9-9">
          <mxGeometry x="76" y="56" width="48" height="48" as="geometry" />
        </mxCell>
        <mxCell id="l54pLfl_Zj9ZTrnPYG_9-11" value="" style="sketch=0;outlineConnect=0;fontColor=#232F3E;gradientColor=none;fillColor=#ED7100;strokeColor=none;dashed=0;verticalLabelPosition=bottom;verticalAlign=top;align=center;html=1;fontSize=12;fontStyle=0;aspect=fixed;pointerEvents=1;shape=mxgraph.aws4.instance2;" vertex="1" parent="l54pLfl_Zj9ZTrnPYG_9-9">
          <mxGeometry x="396" y="56" width="48" height="48" as="geometry" />
        </mxCell>
        <mxCell id="l54pLfl_Zj9ZTrnPYG_9-12" value="" style="sketch=0;outlineConnect=0;fontColor=#232F3E;gradientColor=none;fillColor=#ED7100;strokeColor=none;dashed=0;verticalLabelPosition=bottom;verticalAlign=top;align=center;html=1;fontSize=12;fontStyle=0;aspect=fixed;pointerEvents=1;shape=mxgraph.aws4.instance2;" vertex="1" parent="l54pLfl_Zj9ZTrnPYG_9-9">
          <mxGeometry x="720" y="56" width="48" height="48" as="geometry" />
        </mxCell>
        <mxCell id="l54pLfl_Zj9ZTrnPYG_9-17" value="SSM Agent" style="sketch=0;outlineConnect=0;fontColor=#232F3E;gradientColor=none;fillColor=#E7157B;strokeColor=none;dashed=0;verticalLabelPosition=bottom;verticalAlign=top;align=center;html=1;fontSize=12;fontStyle=0;aspect=fixed;pointerEvents=1;shape=mxgraph.aws4.automation;" vertex="1" parent="l54pLfl_Zj9ZTrnPYG_9-9">
          <mxGeometry x="460" y="61" width="38" height="38" as="geometry" />
        </mxCell>
        <mxCell id="l54pLfl_Zj9ZTrnPYG_9-18" value="SSM Agent" style="sketch=0;outlineConnect=0;fontColor=#232F3E;gradientColor=none;fillColor=#E7157B;strokeColor=none;dashed=0;verticalLabelPosition=bottom;verticalAlign=top;align=center;html=1;fontSize=12;fontStyle=0;aspect=fixed;pointerEvents=1;shape=mxgraph.aws4.automation;" vertex="1" parent="l54pLfl_Zj9ZTrnPYG_9-9">
          <mxGeometry x="780" y="61" width="38" height="38" as="geometry" />
        </mxCell>
        <mxCell id="l54pLfl_Zj9ZTrnPYG_9-16" value="SSM Agent" style="sketch=0;outlineConnect=0;fontColor=#232F3E;gradientColor=none;fillColor=#E7157B;strokeColor=none;dashed=0;verticalLabelPosition=bottom;verticalAlign=top;align=center;html=1;fontSize=12;fontStyle=0;aspect=fixed;pointerEvents=1;shape=mxgraph.aws4.automation;" vertex="1" parent="l54pLfl_Zj9ZTrnPYG_9-3">
          <mxGeometry x="230" y="180" width="38" height="38" as="geometry" />
        </mxCell>
        <mxCell id="l54pLfl_Zj9ZTrnPYG_9-14" value="Patch Manager" style="sketch=0;outlineConnect=0;fontColor=#232F3E;gradientColor=none;fillColor=#E7157B;strokeColor=none;dashed=0;verticalLabelPosition=bottom;verticalAlign=top;align=center;html=1;fontSize=12;fontStyle=0;aspect=fixed;pointerEvents=1;shape=mxgraph.aws4.patch_manager;" vertex="1" parent="l54pLfl_Zj9ZTrnPYG_9-2">
          <mxGeometry x="330" y="480" width="78" height="78" as="geometry" />
        </mxCell>
        <mxCell id="l54pLfl_Zj9ZTrnPYG_9-15" value="State Manager" style="sketch=0;outlineConnect=0;fontColor=#232F3E;gradientColor=none;fillColor=#E7157B;strokeColor=none;dashed=0;verticalLabelPosition=bottom;verticalAlign=top;align=center;html=1;fontSize=12;fontStyle=0;aspect=fixed;pointerEvents=1;shape=mxgraph.aws4.state_manager;" vertex="1" parent="l54pLfl_Zj9ZTrnPYG_9-2">
          <mxGeometry x="640" y="480" width="78" height="78" as="geometry" />
        </mxCell>
      </root>
    </mxGraphModel>
  </diagram>
</mxfile>
